<?xml version="1.0" encoding="iso-8859-1"?>
<!-- Generator: Adobe Illustrator 19.0.0, SVG Export Plug-In . SVG Version: 6.00 Build 0)  -->
<svg version="1.1" id="Layer_1" xmlns="http://www.w3.org/2000/svg" xmlns:xlink="http://www.w3.org/1999/xlink" x="0px" y="0px"
	 viewBox="0 0 437.206 437.206" style="enable-background:new 0 0 437.206 437.206;" xml:space="preserve">
<g>
	<polygon style="fill:#666666;" points="278.606,296.212 278.606,345.712 253.626,345.712 183.586,345.712 158.606,345.712 
		158.606,296.212 168.176,296.212 269.036,296.212 	"/>
	<polygon style="fill:#808080;" points="254.606,296.212 254.606,345.712 239.618,345.712 197.594,345.712 182.606,345.712 
		182.606,296.212 188.348,296.212 248.864,296.212 	"/>
	<rect x="183.586" y="345.712" style="fill:#B3B3B3;" width="70.04" height="48.75"/>
	<rect x="203.606" y="345.712" style="fill:#CCCCCC;" width="30" height="48.75"/>
	<path style="fill:#F7B239;" d="M286.266,221.262c0,31.88-6.51,57.09-17.23,74.95h-100.86c-10.72-17.86-17.23-43.07-17.23-74.95
		c0-49.47,35.02-101.55,54.67-126.87c6.59-8.48,19.38-8.48,25.97,0C251.236,119.712,286.266,171.792,286.266,221.262z"/>
	<path style="fill:#E09B2D;" d="M258.12,229.845c0,28.229-3.802,50.552-10.063,66.367h-58.903
		c-6.261-15.815-10.063-38.138-10.063-66.367c0-43.805,20.452-89.921,31.928-112.341c3.849-7.509,11.318-7.509,15.167,0
		C237.663,139.924,258.12,186.04,258.12,229.845z"/>
	<path style="fill:#F95428;" d="M218.603,227.216L218.603,227.216c-9.112,0-16.499,7.387-16.499,16.499v52.497h32.998v-52.497
		C235.102,234.603,227.715,227.216,218.603,227.216z"/>
	<g>
		<path d="M237.511,89.798c-4.57-5.889-11.462-9.267-18.908-9.267c-7.446,0-14.338,3.377-18.908,9.267
			c-21.009,27.07-56.252,80.145-56.252,131.464c0,26.187,4.355,49.365,12.65,67.893c-2.903,1.035-4.985,3.8-4.985,7.059v49.498
			c0,4.142,3.358,7.5,7.5,7.5h17.478v41.248c0,4.142,3.358,7.5,7.5,7.5h14.02v27.748c0,4.142,3.358,7.5,7.5,7.5s7.5-3.358,7.5-7.5
			v-27.748h11.999v27.748c0,4.142,3.358,7.5,7.5,7.5s7.5-3.358,7.5-7.5v-27.748h14.02c4.142,0,7.5-3.358,7.5-7.5V353.21h17.478
			c4.142,0,7.5-3.358,7.5-7.5v-49.498c0-3.26-2.083-6.026-4.988-7.06c8.295-18.527,12.649-41.706,12.649-67.892
			C293.763,169.943,258.519,116.868,237.511,89.798z M211.546,98.994c1.708-2.201,4.28-3.463,7.058-3.463
			c2.777,0,5.35,1.262,7.058,3.463c19.832,25.554,53.102,75.419,53.102,122.268c0,26.958-4.869,50.158-14.107,67.451h-22.054
			v-44.998c0-13.233-10.766-23.999-23.999-23.999h0c-13.233,0-23.999,10.766-23.999,23.999v44.998H172.55
			c-9.238-17.293-14.107-40.493-14.107-67.451C158.443,174.413,191.713,124.548,211.546,98.994z M227.602,288.713h-17.999v-44.998
			c0-4.962,4.037-8.999,9-8.999c4.962,0,8.999,4.037,8.999,8.999V288.713z M246.125,386.958h-55.039V353.21h55.039V386.958z
			 M271.102,338.21H166.108v-34.498h104.994V338.21z"/>
		<path style="fill:#F95428;" d="M218.603,55.498c4.142,0,7.5-3.358,7.5-7.5V7.5c0-4.142-3.358-7.5-7.5-7.5s-7.5,3.358-7.5,7.5
			v40.498C211.103,52.14,214.461,55.498,218.603,55.498z"/>
		<path style="fill:#F95428;" d="M272.69,77.901c1.919,0,3.839-0.732,5.303-2.197l28.636-28.636c2.929-2.929,2.929-7.678,0-10.606
			c-2.929-2.929-7.678-2.929-10.606,0l-28.636,28.636c-2.929,2.929-2.929,7.678,0,10.606
			C268.851,77.169,270.771,77.901,272.69,77.901z"/>
		<path style="fill:#F95428;" d="M159.213,75.705c1.464,1.464,3.384,2.197,5.303,2.197s3.839-0.732,5.303-2.197
			c2.929-2.929,2.929-7.678,0-10.606l-28.636-28.636c-2.929-2.929-7.678-2.929-10.606,0c-2.929,2.929-2.929,7.678,0,10.606
			L159.213,75.705z"/>
		<path style="fill:#F95428;" d="M335.592,116.988h-40.498c-4.142,0-7.5,3.358-7.5,7.5s3.358,7.5,7.5,7.5h40.498
			c4.142,0,7.5-3.358,7.5-7.5S339.734,116.988,335.592,116.988z"/>
		<path style="fill:#F95428;" d="M149.613,124.488c0-4.142-3.358-7.5-7.5-7.5h-40.498c-4.142,0-7.5,3.358-7.5,7.5s3.358,7.5,7.5,7.5
			h40.498C146.255,131.988,149.613,128.63,149.613,124.488z"/>
	</g>
</g>
<g>
</g>
<g>
</g>
<g>
</g>
<g>
</g>
<g>
</g>
<g>
</g>
<g>
</g>
<g>
</g>
<g>
</g>
<g>
</g>
<g>
</g>
<g>
</g>
<g>
</g>
<g>
</g>
<g>
</g>
</svg>
