<svg id="Layer_1" data-name="Layer 1" xmlns="http://www.w3.org/2000/svg" viewBox="0 0 512 512"><defs><style>.cls-1{fill:#dfe5e8;}.cls-2{fill:#ffc84d;}.cls-3{fill:#74c666;}.cls-4{fill:#f4536a;}.cls-5{fill:#adb8bc;}</style></defs><title>light-bulbs-flat</title><path class="cls-1" d="M290.11,117.42l-8.29-30.08c-2.39-8.68-9.56-14.5-17.85-14.5s-15.45,5.82-17.84,14.5l-8.29,30.08c-2.64,9.57,1.37,19.75,9.53,24.19l8.29,4.51a17.32,17.32,0,0,0,16.62,0l8.29-4.51C288.74,137.17,292.75,127,290.11,117.42Z"/><path class="cls-1" d="M290.11,354.45l-8.29-30.08c-2.39-8.68-9.56-14.5-17.85-14.5s-15.45,5.82-17.84,14.5l-8.29,30.08c-2.64,9.57,1.37,19.75,9.53,24.19l8.29,4.51a17.32,17.32,0,0,0,16.62,0l8.29-4.51C288.74,374.2,292.75,364,290.11,354.45Z"/><path class="cls-1" d="M112.33,473,104,442.89c-2.39-8.68-9.56-14.5-17.84-14.5s-15.45,5.82-17.84,14.5L60.06,473c-2.64,9.57,1.37,19.75,9.53,24.19l8.29,4.51a17.32,17.32,0,0,0,16.62,0l8.29-4.51C111,492.72,115,482.55,112.33,473Z"/><path class="cls-1" d="M189,251.88l-8.29-4.51a17.31,17.31,0,0,0-16.62,0l-8.29,4.51c-8.16,4.44-12.17,14.61-9.53,24.19l8.29,30.08c2.39,8.68,9.56,14.5,17.85,14.5s15.45-5.82,17.84-14.5l8.29-30.08C201.17,266.49,197.15,256.32,189,251.88Z"/><path class="cls-2" d="M284.72,473l-8.29-30.08c-2.39-8.68-9.56-14.5-17.85-14.5s-15.45,5.82-17.84,14.5L232.45,473c-2.64,9.57,1.37,19.75,9.53,24.19l8.29,4.51a17.32,17.32,0,0,0,16.62,0l8.29-4.51C283.35,492.72,287.36,482.55,284.72,473Z"/><path class="cls-2" d="M372.16,14.84l-8.29-4.51a17.29,17.29,0,0,0-16.62,0L339,14.84c-8.16,4.44-12.17,14.61-9.53,24.19l8.29,30.08c2.39,8.68,9.56,14.5,17.84,14.5S371,77.79,373.4,69.11L381.69,39C384.33,29.46,380.32,19.28,372.16,14.84Z"/><path class="cls-2" d="M189,133.36l-8.29-4.51a17.29,17.29,0,0,0-16.62,0l-8.29,4.51c-8.16,4.44-12.17,14.61-9.53,24.19l8.29,30.08c2.39,8.68,9.56,14.5,17.85,14.5s15.45-5.82,17.84-14.5l8.29-30.08C201.17,148,197.15,137.8,189,133.36Z"/><path class="cls-2" d="M372.16,251.88l-8.29-4.51a17.31,17.31,0,0,0-16.62,0L339,251.88c-8.16,4.44-12.17,14.61-9.53,24.19l8.29,30.08c2.39,8.68,9.56,14.5,17.84,14.5s15.45-5.82,17.84-14.5l8.29-30.08C384.33,266.49,380.32,256.32,372.16,251.88Z"/><path class="cls-3" d="M290.11,235.94l-8.29-30.08c-2.39-8.68-9.56-14.5-17.85-14.5s-15.45,5.82-17.84,14.5l-8.29,30.08c-2.64,9.57,1.37,19.75,9.53,24.19l8.29,4.51a17.32,17.32,0,0,0,16.62,0l8.29-4.51C288.74,255.69,292.75,245.51,290.11,235.94Z"/><path class="cls-3" d="M66.31,243.54l-30.08-8.29c-9.57-2.66-19.75,1.37-24.19,9.53l-4.51,8.29a17.31,17.31,0,0,0,0,16.62L12,278c3.52,6.48,10.66,10.34,18.24,10.34a22.27,22.27,0,0,0,6-.8l30.08-8.29c8.68-2.39,14.5-9.56,14.5-17.85S75,245.94,66.31,243.54Z"/><path class="cls-3" d="M509.87,129.17l-4.51-8.29c-4.44-8.17-14.62-12.2-24.2-9.54l-30.08,8.29c-8.68,2.39-14.5,9.56-14.5,17.84s5.83,15.45,14.5,17.85l30.08,8.29a22.33,22.33,0,0,0,6,.8c7.58,0,14.71-3.86,18.23-10.34l4.51-8.29A17.31,17.31,0,0,0,509.87,129.17Z"/><path class="cls-3" d="M372.16,370.4l-8.29-4.51a17.29,17.29,0,0,0-16.62,0L339,370.4c-8.16,4.44-12.17,14.61-9.53,24.19l8.29,30.08c2.39,8.68,9.56,14.5,17.84,14.5s15.45-5.82,17.84-14.5l8.29-30.08C384.33,385,380.32,374.84,372.16,370.4Z"/><path class="cls-4" d="M509.87,366.21l-4.51-8.29c-4.44-8.16-14.58-12.19-24.2-9.54l-30.08,8.29c-8.68,2.39-14.5,9.56-14.5,17.84s5.83,15.45,14.5,17.85l30.08,8.29a22.34,22.34,0,0,0,6,.81c7.58,0,14.72-3.87,18.23-10.34l4.51-8.29A17.31,17.31,0,0,0,509.87,366.21Z"/><path class="cls-4" d="M372.16,133.36l-8.29-4.51a17.29,17.29,0,0,0-16.62,0L339,133.36c-8.16,4.44-12.17,14.61-9.53,24.19l8.29,30.08c2.39,8.68,9.56,14.5,17.84,14.5s15.45-5.82,17.84-14.5l8.29-30.08C384.33,148,380.32,137.8,372.16,133.36Z"/><path class="cls-4" d="M189,370.4l-8.29-4.51a17.29,17.29,0,0,0-16.62,0l-8.29,4.51c-8.16,4.44-12.17,14.61-9.53,24.19l8.29,30.08c2.39,8.68,9.56,14.5,17.85,14.5s15.45-5.82,17.84-14.5l8.29-30.08C201.17,385,197.15,374.84,189,370.4Z"/><path class="cls-4" d="M189,14.84l-8.29-4.51a17.29,17.29,0,0,0-16.62,0l-8.29,4.51c-8.16,4.44-12.17,14.61-9.53,24.19l8.29,30.08c2.39,8.68,9.56,14.5,17.85,14.5s15.45-5.82,17.84-14.5L198.53,39C201.17,29.46,197.15,19.28,189,14.84Z"/><path class="cls-5" d="M382.49,304.49H134.68a48.48,48.48,0,0,1,0-97H382.49a70,70,0,1,0,0-140.07H97V56.68A10.78,10.78,0,0,0,86.2,45.9H32.32A10.77,10.77,0,0,0,21.55,56.68V67.45H10.77a10.77,10.77,0,0,0,0,21.55H21.55V99.77a10.77,10.77,0,0,0,10.77,10.77H86.2A10.78,10.78,0,0,0,97,99.77V89H382.49a48.48,48.48,0,0,1,0,97H134.68a70,70,0,0,0,0,140.07H382.49a48.48,48.48,0,0,1,0,97H64.65a10.77,10.77,0,1,0,0,21.55H382.49a70,70,0,0,0,0-140.07ZM75.42,89H43.1V67.45H75.42Z"/></svg>